<?xml version="1.0" encoding="UTF-8"?>
<svg id="_Слой_1" data-name="Слой 1" xmlns="http://www.w3.org/2000/svg" xmlns:xlink="http://www.w3.org/1999/xlink" viewBox="0 0 84.6657 108.1081">
  <defs>
    <style>
      .cls-1 {
        fill: url(#_Безымянный_градиент_47);
      }
    </style>
    <radialGradient id="_Безымянный_градиент_47" data-name="Безымянный градиент 47" cx="42.3328" cy="44.119" fx="42.3328" fy="44.119" r="43.2351" gradientUnits="userSpaceOnUse">
      <stop offset=".0725" stop-color="#f6ce69"/>
      <stop offset=".5445" stop-color="#fff778"/>
      <stop offset=".6247" stop-color="#fdf173"/>
      <stop offset=".7227" stop-color="#f7e267"/>
      <stop offset=".8302" stop-color="#efca53"/>
      <stop offset=".9436" stop-color="#e2a737"/>
      <stop offset=".9601" stop-color="#e1a233"/>
    </radialGradient>
  </defs>
  <path class="cls-1" d="M.0005,69.3114c-.0444,3.5763,2.6745,6.2663,6.3219,6.2596,3.4986-.0089,6.293-2.7966,6.3241-6.3174,.031-3.2053-2.9455-6.0686-6.3396-6.1064h-.0556C3.0637,63.1473,.0361,66.1261,.0005,69.3114m72.3435-2.2102c-.0088,3.5541,2.579,6.1508,6.1287,6.1597,3.5585,.0089,6.1796-2.5745,6.1929-6.0997,.0156-3.5408-2.5944-6.193-6.1129-6.213h-.0334c-3.3542,0-6.1687,2.7989-6.1753,6.153M27.7091,37.5356c-2.1013,6.5151-2.5323,13.1857-1.8303,19.9695,.8996,8.712,3.554,16.7509,9.1828,23.5792,2.8545,3.4608,6.5884,5.6066,11.1621,5.8265,6.0419,.2865,13.2279-5.5866,14.8627-12.5682-1.6726,1.6104-3.3008,3.2786-5.0313,4.8291-5.029,4.4959-9.776,4.7714-14.4184,.7086-1.3438-1.1751-2.5634-2.63-3.4387-4.1827-5.6043-9.9337-6.3395-20.3583-2.881-31.1605,.6153-1.9259,2.128-4.4293,1.4372-5.691-.8219-1.506-3.543-2.0147-5.4889-2.8544-.9729-.4176-1.6016-.6642-2.0547-.6642-.7286,0-.9952,.6375-1.5017,2.208m-7.6102-3.7984c-2.3967,.191-4.7736,.733-7.1304,1.2528-1.4083,.3065-2.068,1.2595-2.1014,2.81-.2643,11.8862,1.9126,23.2526,7.4969,33.8016,3.1476,5.9487,7.0816,11.3264,13.2279,14.6295,2.539,1.3661,5.1845,2.2435,8.4098,1.9503-.3776-.4265-.4886-.642-.6597-.7308-8.2255-4.1228-12.7569-11.1576-15.398-19.6408-3.2054-10.2824-3.2476-20.7292-1.4817-31.256,.3465-2.068,.0156-2.8433-1.737-2.8433-.191,0-.3998,.0089-.6264,.0267m57.634-3.4453c-.7153,3.8495-1.0263,7.8368-2.2769,11.5041-2.5056,7.3747-8.0278,12.5659-13.9876,17.2329-5.9509,4.6603-12.4814,8.3454-19.7363,10.589-1.8369,.5687-2.1856,1.3994-1.1328,2.9033,1.215,1.7348,2.3279,3.5719,3.7429,5.129,2.1501,2.3679,2.941,2.3457,5.7154,.773,8.0033-4.5403,15.0315-10.2558,20.7025-17.5217,4.7115-6.0375,8.4477-12.6015,9.645-20.3205,.6597-4.2338,.0066-8.2699-2.5657-12.0084-.031,.5753-.0043,1.1595-.1066,1.7193M12.2444,26.2336c-6.1019,2.2235-9.6672,7.4791-9.0207,13.4456,.4642,4.3027,2.2124,8.1255,5.0867,11.5286-.5575-2.4967-1.1906-4.9779-1.6571-7.4925-1.3106-7.0371,1.9815-11.8107,9.1296-12.6792,3.1742-.3843,6.5329-.311,9.6693,.2888,10.0204,1.9259,18.1347,7.0593,23.9546,15.5336,1.0529,1.5283,1.9148,1.646,3.2609,.5598,1.2972-1.0462,2.6322-2.0503,4.0073-2.9877,1.7792-1.2084,1.6726-2.2902,.2377-3.8229-6.333-6.7572-14.041-11.3175-22.7973-13.992-4.0406-1.2328-8.1344-2.0458-12.2461-2.0458-3.2009,0-6.4151,.4931-9.6249,1.6638m43.6819-9.1851c3.0365,1.124,6.1663,2.0547,9.0874,3.4253,3.3164,1.5527,5.1623,4.176,5.1357,8.11-.0244,3.4008-.7508,6.5862-2.7722,9.1851-2.4946,3.2031-5.1757,6.3707-8.2678,8.9652-5.9531,4.9913-12.9946,7.6768-20.7869,8.2277-1.1351,.08-1.9459,.3821-1.7904,1.7415,.2532,2.1791,.4976,4.3626,.7375,6.5417,.151,1.3617,.8907,1.8281,2.2035,1.5016,.8063-.1999,1.6371-.3065,2.4367-.5309,8.5787-2.379,16.1312-6.655,22.373-12.9524,4.5981-4.6381,8.6831-9.7627,10.449-16.2711,1.3928-5.1334,.9663-10.067-2.9298-13.9676-3.2943-3.2942-7.3482-4.2205-11.633-4.2205-1.3951,0-2.8166,.0977-4.2428,.2443m-40.3389,1.1129c-3.8339,1.6415-6.9726,4.1183-8.7452,8.05,4.567-2.6789,9.2628-4.6514,14.5762-4.8202,13.0858-.4243,24.4366,4.2827,34.8323,11.7818,2.0636,1.4861,4.0073,3.1432,6.5618,5.1623,1.2439-2.9077,2.4945-5.5244,3.4719-8.241,.6863-1.9014,.0755-3.4253-1.8392-4.5537-8.5276-5.0179-17.6327-8.3477-27.4487-9.7049-2.339-.3243-4.6647-.5065-6.9705-.5065-4.9202,0-9.7493,.8241-14.4385,2.8322M34.1065,6.3018c-.0066,3.4963,2.5456,6.1042,5.9287,6.0664,3.5519-.0422,6.3396-2.7255,6.3396-6.1019,0-3.3231-2.921-6.2552-6.244-6.2663h-.0267c-3.4986,0-5.9887,2.6167-5.9976,6.3018"/>
</svg>